<?xml version="1.0" encoding="UTF-8"?>
<svg width="162px" height="30px" viewBox="0 0 162 30" version="1.1" xmlns="http://www.w3.org/2000/svg" xmlns:xlink="http://www.w3.org/1999/xlink">
    <!-- Generator: Sketch 51.2 (57519) - http://www.bohemiancoding.com/sketch -->
    <title>logo-MVuniversity-footer@3x</title>
    <desc>Created with Sketch.</desc>
    <defs></defs>
    <g id="Main" stroke="none" stroke-width="1" fill="none" fill-rule="evenodd">
        <g id="Next-Event-v5" transform="translate(-143.000000, -7210.000000)">
            <g id="Footer" transform="translate(0.000000, 6878.000000)">
                <g id="below" transform="translate(143.000000, 332.000000)">
                    <g id="logo-MVuniversity-footer">
                        <g id="university" transform="translate(71.775701, 24.392523)" fill="#091C32">
                            <path d="M0.101214953,3.22962617 L0.101214953,0.171028037 L1.27794393,0.171028037 L1.27794393,3.19878505 C1.27794393,4.07074766 1.71364486,4.52186916 2.43168224,4.52186916 C3.14971963,4.52186916 3.58542056,4.08588785 3.58542056,3.23719626 L3.58542056,0.171028037 L4.76214953,0.171028037 L4.76214953,3.19149533 C4.76214953,4.81205607 3.8528972,5.60747664 2.41626168,5.60747664 C0.979906542,5.60747664 0.101214953,4.80476636 0.101214953,3.22962617" id="Fill-14"></path>
                            <polyline id="Fill-16" points="7.64495327 0.171028037 8.73028037 0.171028037 11.2362617 3.46654206 11.2362617 0.171028037 12.3981308 0.171028037 12.3981308 5.52336449 11.3971963 5.52336449 8.80654206 2.12074766 8.80654206 5.52336449 7.64495327 5.52336449 7.64495327 0.171028037"></polyline>
                            <polygon id="Fill-17" points="15.4185981 5.52336449 16.5956075 5.52336449 16.5956075 0.171028037 15.4185981 0.171028037"></polygon>
                            <polyline id="Fill-18" points="19.1562617 0.171028037 20.455514 0.171028037 21.8537383 3.94065421 23.252243 0.171028037 24.5206542 0.171028037 22.3578505 5.5617757 21.3190654 5.5617757 19.1562617 0.171028037"></polyline>
                            <polyline id="Fill-19" points="27.0291589 0.171028037 31.0640187 0.171028037 31.0640187 1.21878505 28.1985981 1.21878505 28.1985981 2.3046729 30.7202804 2.3046729 30.7202804 3.35186916 28.1985981 3.35186916 28.1985981 4.47588785 31.1024299 4.47588785 31.1024299 5.52336449 27.0291589 5.52336449 27.0291589 0.171028037"></polyline>
                            <path d="M36.2004673,2.77093458 C36.7738318,2.77093458 37.1024299,2.46504673 37.1024299,2.01364486 L37.1024299,1.99878505 C37.1024299,1.49383178 36.7508411,1.23392523 36.177757,1.23392523 L35.0083178,1.23392523 L35.0083178,2.77093458 L36.2004673,2.77093458 Z M33.8318692,0.171028037 L36.2770093,0.171028037 C36.9571963,0.171028037 37.4845794,0.362523364 37.8358879,0.714392523 C38.1339252,1.01214953 38.2942991,1.43271028 38.2942991,1.93738318 L38.2942991,1.95280374 C38.2942991,2.81691589 37.8283178,3.35943925 37.1481308,3.61205607 L38.4546729,5.52336449 L37.0794393,5.52336449 L35.933271,3.81084112 L35.0083178,3.81084112 L35.0083178,5.52336449 L33.8318692,5.52336449 L33.8318692,0.171028037 Z" id="Fill-20"></path>
                            <path d="M40.6727103,4.74364486 L41.3680374,3.91009346 C41.8494393,4.30766355 42.3538318,4.56028037 42.9650467,4.56028037 C43.4464486,4.56028037 43.7369159,4.36878505 43.7369159,4.0553271 L43.7369159,4.03990654 C43.7369159,3.74214953 43.5535514,3.58906542 42.6594393,3.35943925 C41.5819626,3.08411215 40.8866355,2.78607477 40.8866355,1.72317757 L40.8866355,1.70803738 C40.8866355,0.737102804 41.6663551,0.0947663551 42.758972,0.0947663551 C43.5378505,0.0947663551 44.2028972,0.33953271 44.7454206,0.775233645 L44.1342056,1.66205607 C43.6603738,1.33345794 43.1943925,1.1346729 42.7435514,1.1346729 C42.2927103,1.1346729 42.0557944,1.34102804 42.0557944,1.60121495 L42.0557944,1.61635514 C42.0557944,1.96794393 42.2851402,2.08261682 43.2095327,2.31981308 C44.2945794,2.60271028 44.9057944,2.99242991 44.9057944,3.92523364 L44.9057944,3.94065421 C44.9057944,5.0035514 44.0960748,5.59990654 42.9420561,5.59990654 C42.1323364,5.59990654 41.3147664,5.31700935 40.6727103,4.74364486" id="Fill-22"></path>
                            <polygon id="Fill-24" points="47.6666355 5.52336449 48.8433645 5.52336449 48.8433645 0.171028037 47.6666355 0.171028037"></polygon>
                            <polyline id="Fill-25" points="53.1081308 1.25691589 51.4805607 1.25691589 51.4805607 0.171028037 55.9124299 0.171028037 55.9124299 1.25691589 54.2845794 1.25691589 54.2845794 5.52336449 53.1081308 5.52336449 53.1081308 1.25691589"></polyline>
                            <polyline id="Fill-26" points="59.8494393 3.41299065 57.7940187 0.171028037 59.1692523 0.171028037 60.445514 2.31981308 61.744486 0.171028037 63.0815888 0.171028037 61.0261682 3.39 61.0261682 5.52336449 59.8494393 5.52336449 59.8494393 3.41299065"></polyline>
                        </g>
                        <g id="mindvalley" transform="translate(45.700935, 3.084112)" fill="#091C32">
                            <path d="M17.1086916,9.78728972 L17.1086916,16.8019626 L14.1173832,16.8019626 L14.1173832,9.99308411 C14.1173832,8.62065421 13.4228972,7.81990654 12.2102804,7.81990654 C10.8608411,7.81990654 10.0976636,8.73504673 10.0976636,10.4049533 L10.0976636,16.8019626 L7.10635514,16.8019626 L7.10635514,9.99308411 C7.10635514,8.62065421 6.42336449,7.81990654 5.21102804,7.81990654 C3.90728972,7.81990654 3.08691589,8.73504673 3.08691589,10.4049533 L3.08691589,16.8019626 L0.0956074766,16.8019626 L0.0956074766,5.05682243 L3.08691589,5.05682243 L3.08691589,6.60757009 C3.74130841,5.57803738 4.80841121,5.07476636 6.24953271,5.07476636 C7.64495327,5.07476636 8.68878505,5.62373832 9.35214953,6.72196262 C10.1071963,5.62373832 11.2631776,5.07476636 12.7729907,5.07476636 C15.4037383,5.07476636 17.1086916,6.92775701 17.1086916,9.78728972" id="Fill-1"></path>
                            <path d="M20.0063551,16.8019626 L22.9976636,16.8019626 L22.9976636,5.05682243 L20.0063551,5.05682243 L20.0063551,16.8019626 Z M19.8414953,2.15831776 C19.8414953,1.26 20.5934579,0.48728972 21.4917757,0.48728972 C22.4105607,0.48728972 23.1625234,1.26 23.1625234,2.15831776 C23.1625234,3.05663551 22.4105607,3.80859813 21.4917757,3.80859813 C20.5934579,3.80859813 19.8414953,3.05663551 19.8414953,2.15831776 Z" id="Fill-2"></path>
                            <path d="M35.601028,6.33308411 C36.424486,7.17953271 36.8324299,8.32317757 36.8324299,9.81028037 L36.8324299,16.8019626 L33.934486,16.8019626 L33.934486,10.1761682 C33.934486,8.64336449 33.0025234,7.81990654 31.6300935,7.81990654 C30.0972897,7.81990654 29.0736449,8.75803738 29.0736449,10.656729 L29.0736449,16.8019626 L26.1759813,16.8019626 L26.1759813,5.05682243 L29.0736449,5.05682243 L29.0736449,6.67626168 C29.8214019,5.60102804 30.9420561,5.07476636 32.4975701,5.07476636 C33.7556075,5.07476636 34.8002804,5.48663551 35.601028,6.33308411" id="Fill-3"></path>
                            <polyline id="Fill-4" points="61.2771028 5.05682243 64.525514 5.05682243 60.1791589 16.8019626 56.8163551 16.8019626 52.47 5.05682243 55.7181308 5.05682243 58.4862617 13.4041121 61.2771028 5.05682243"></polyline>
                            <path d="M71.1762617,14.3394393 C72.0914019,14.3394393 72.8464486,14.042243 73.4414019,13.4475701 C74.0590654,12.8299065 74.3562617,12.0521495 74.3562617,11.1140187 C74.3562617,10.1761682 74.0590654,9.39841121 73.4414019,8.80373832 C72.8464486,8.18607477 72.0914019,7.88859813 71.1762617,7.88859813 C70.2616822,7.88859813 69.5063551,8.18607477 68.9116822,8.80373832 C68.3170093,9.39841121 68.0198131,10.1761682 68.0198131,11.1140187 C68.0198131,12.0521495 68.3170093,12.8299065 68.9116822,13.4475701 C69.5063551,14.042243 70.2616822,14.3394393 71.1762617,14.3394393 Z M74.3172897,5.07476636 L77.3085981,5.07476636 L77.3085981,16.8019626 L74.3172897,16.8019626 L74.3172897,15.4833645 C73.4758879,16.6045794 72.2091589,17.1535514 70.6079439,17.1535514 C69.0751402,17.1535514 67.781215,16.5813084 66.6829907,15.4146729 C65.607757,14.2480374 65.0638318,12.8071963 65.0638318,11.1140187 C65.0638318,9.42140187 65.6153271,8.00299065 66.6902804,6.83635514 C67.7885047,5.66971963 69.0740187,5.07476636 70.6068224,5.07476636 C72.2080374,5.07476636 73.4758879,5.62373832 74.3172897,6.74495327 L74.3172897,5.07476636 Z" id="Fill-5"></path>
                            <path d="M100.377196,10.0715888 C100.033738,8.48242991 98.8900935,7.76102804 97.5406542,7.76102804 C95.9621495,7.76102804 94.8869159,8.57579439 94.5437383,10.0715888 L100.377196,10.0715888 Z M94.5894393,12.3148598 C94.9783178,13.8106542 96.0535514,14.4709346 97.8148598,14.4709346 C98.9357944,14.4709346 99.8052336,14.0851402 100.377196,13.3300935 L102.756168,14.7042056 C101.635234,16.3284112 99.9653271,17.1527103 97.7691589,17.1527103 C95.8704673,17.1527103 94.3606542,16.5813084 93.2170093,15.4371028 C92.0730841,14.2934579 91.5014019,12.8526168 91.5014019,11.1140187 C91.5014019,9.39813084 92.0730841,7.95728972 93.1940187,6.81336449 C94.3149533,5.64672897 95.7790654,5.07476636 97.5406542,5.07476636 C99.2105607,5.07476636 100.605701,5.64672897 101.680935,6.81336449 C102.778879,7.98 103.32785,9.39252336 103.32785,11.1084112 C103.32785,11.4972897 103.316916,11.882243 103.248224,12.3496262 L94.5894393,12.3148598 Z" id="Fill-6"></path>
                            <path d="M112.564206,5.09943925 L115.720935,5.09943925 L111.568037,16.5361682 C110.378411,19.8302804 108.436822,21.2702804 105.538879,21.1101869 L105.538879,18.3650467 C107.128037,18.3880374 107.976449,17.7257944 108.525421,16.1702804 L103.825794,5.09943925 L107.051215,5.09943925 L110.02486,12.7856075 L112.564206,5.09943925" id="Fill-7"></path>
                            <path d="M83.2909346,0.14046729 L83.2909346,0.133738318 C80.2999065,0.525140187 80.393271,2.79364486 80.393271,2.79364486 L80.393271,16.8019626 L83.2909346,16.8019626 L83.2909346,0.133738318 L83.2909346,0.14046729" id="Fill-8"></path>
                            <path d="M47.031028,13.3598131 C46.4363551,13.954486 45.6815888,14.2519626 44.7664486,14.2519626 C43.8515888,14.2519626 43.0965421,13.954486 42.4788785,13.3598131 C41.8842056,12.7421495 41.586729,11.9643925 41.586729,11.0265421 C41.586729,10.0884112 41.8842056,9.31065421 42.4788785,8.71598131 C43.0965421,8.09831776 43.8515888,7.8011215 44.7664486,7.8011215 C45.6815888,7.8011215 46.4363551,8.09831776 47.031028,8.71598131 C47.6259813,9.31065421 47.9234579,10.0884112 47.9234579,11.0265421 C47.9234579,11.9643925 47.6259813,12.7421495 47.031028,13.3598131 Z M50.7605607,0.177196262 L50.7605607,0.127570093 C47.7692523,0.519252336 47.8628972,2.78831776 47.8628972,2.78831776 L47.8628972,6.65719626 C46.9281308,5.53626168 45.7886916,4.98728972 44.1874766,4.98728972 C42.6546729,4.98728972 41.3428037,5.58196262 40.2448598,6.7488785 C39.1696262,7.91523364 38.6282243,9.33364486 38.6282243,11.0265421 C38.6282243,12.7194393 39.1808411,14.1605607 40.2560748,15.3271963 C41.3540187,16.4938318 42.6527103,17.0657944 44.185514,17.0657944 C45.786729,17.0657944 46.9281308,16.5168224 47.8628972,15.3958879 L47.8628972,16.8075701 L50.7605607,16.8075701 L50.7605607,0.15953271 L50.7605607,0.177196262 Z" id="Fill-9"></path>
                            <path d="M89.3669159,0.14046729 L89.3669159,0.133738318 C86.3756075,0.525140187 86.4692523,2.79364486 86.4692523,2.79364486 L86.4692523,16.8019626 L89.3669159,16.8019626 L89.3669159,0.133738318 L89.3669159,0.14046729" id="Fill-10"></path>
                        </g>
                        <path d="M26.7028037,5.65373832 C24.5868224,8.09635514 24.1230841,19.4329907 24.1068224,19.8546729 C24.1065421,19.8569159 24.1065421,19.857757 24.1065421,19.8594393 C24.1062617,19.8650467 24.1062617,19.8681308 24.1062617,19.8681308 C24.1062617,19.8681308 25.3985047,20.5441121 33.2551402,13.5883178 C41.1120561,6.63140187 45.828785,0.262149533 45.828785,0.262149533 C45.828785,0.262149533 30.2638318,1.54598131 26.7028037,5.65373832" id="Fill-12" fill="#2A8CF8"></path>
                        <path d="M21.7233645,19.8543925 C21.7225234,19.8328037 21.7202804,19.7817757 21.7169159,19.7046729 C21.7169159,19.7029907 21.7169159,19.7015888 21.7166355,19.7004673 C21.7082243,19.5109346 21.6919626,19.1669159 21.6650467,18.7065421 C21.6647664,18.6992523 21.6642056,18.6919626 21.6639252,18.6843925 C21.6583178,18.5890654 21.6524299,18.488972 21.6457009,18.3838318 C21.6454206,18.3771028 21.6448598,18.3698131 21.6442991,18.3628037 C21.6378505,18.258785 21.6311215,18.15 21.6238318,18.0375701 C21.6235514,18.0328037 21.6229907,18.0283178 21.6227103,18.0235514 C21.6157009,17.9142056 21.6078505,17.8006542 21.6,17.6840187 C21.5983178,17.6629907 21.5969159,17.6419626 21.595514,17.6203738 C21.5873832,17.5062617 21.578972,17.3890654 21.5702804,17.2690654 C21.5685981,17.2483178 21.5671963,17.2275701 21.565514,17.2068224 C21.5562617,17.0828972 21.546729,16.9561682 21.5366355,16.8266355 C21.5357944,16.8173832 21.5349533,16.8081308 21.5343925,16.7991589 C21.5245794,16.675514 21.514486,16.5493458 21.5038318,16.421215 C21.5015888,16.3942991 21.4993458,16.3673832 21.4971028,16.3401869 C21.4861682,16.2117757 21.4749533,16.0811215 21.4634579,15.948785 C21.4606542,15.9162617 21.4575701,15.8837383 21.4547664,15.851215 C21.4427103,15.7174766 21.4303738,15.5826168 21.4174766,15.445514 C21.4149533,15.417757 21.4121495,15.3897196 21.4096262,15.3619626 C21.3975701,15.2338318 21.3849533,15.1045794 21.3717757,14.9739252 C21.3695327,14.9503738 21.3672897,14.9271028 21.3647664,14.903271 C21.3507477,14.7625234 21.3358879,14.6198131 21.3207477,14.4765421 C21.3168224,14.4403738 21.3128972,14.4039252 21.308972,14.3674766 C21.2935514,14.2250467 21.2778505,14.081215 21.2613084,13.9371028 C21.2576636,13.9051402 21.2540187,13.8728972 21.2503738,13.8409346 C21.2329907,13.6895327 21.2150467,13.5375701 21.1965421,13.3850467 C21.1945794,13.3699065 21.1928972,13.3553271 21.1909346,13.3404673 C21.173271,13.1963551 21.1550467,13.0519626 21.1362617,12.9072897 C21.1323364,12.8770093 21.1286916,12.846729 21.124486,12.816729 C21.1051402,12.6686916 21.0849533,12.5206542 21.064486,12.3723364 C21.0594393,12.336729 21.0546729,12.3014019 21.0496262,12.2657944 C21.0285981,12.1169159 21.0070093,11.9683178 20.9848598,11.82 C20.9806542,11.7916822 20.9764486,11.7639252 20.9719626,11.7356075 C20.9503738,11.5917757 20.9279439,11.4482243 20.9049533,11.305514 C20.9024299,11.2884112 20.8996262,11.2715888 20.8968224,11.254486 C20.8727103,11.1047664 20.8474766,10.9558879 20.8219626,10.8078505 C20.8163551,10.7750467 20.8107477,10.742243 20.8048598,10.7094393 C20.7793458,10.5647664 20.7535514,10.4209346 20.7266355,10.278785 C20.721028,10.2482243 20.7151402,10.2179439 20.7092523,10.1876636 C20.6814953,10.041028 20.6531776,9.89523364 20.6237383,9.75196262 C20.6206542,9.73626168 20.6172897,9.7211215 20.6142056,9.70598131 C20.5858879,9.56943925 20.5570093,9.43485981 20.5275701,9.30196262 C20.5225234,9.27869159 20.5174766,9.25514019 20.5121495,9.23186916 C20.4815888,9.09504673 20.4501869,8.96074766 20.4179439,8.82841121 C20.4109346,8.79981308 20.4042056,8.77149533 20.3971963,8.7428972 C20.3646729,8.61168224 20.3315888,8.48214953 20.2976636,8.35542056 C20.2914953,8.33271028 20.2853271,8.31056075 20.2794393,8.28813084 C20.2446729,8.1611215 20.2096262,8.03635514 20.1734579,7.9146729 C20.1714953,7.90794393 20.1695327,7.90093458 20.1675701,7.89420561 C20.1302804,7.76971963 20.0921495,7.64915888 20.0534579,7.53084112 C20.0461682,7.50925234 20.0388785,7.48682243 20.0318692,7.46523364 C19.9940187,7.35224299 19.9550467,7.24233645 19.915514,7.13579439 C19.9076636,7.11448598 19.8998131,7.09345794 19.8916822,7.07242991 C19.851028,6.96504673 19.8095327,6.86018692 19.7671963,6.76009346 C19.7624299,6.74915888 19.7576636,6.73878505 19.7528972,6.72757009 C19.7116822,6.63140187 19.6693458,6.53915888 19.6264486,6.45056075 C19.6208411,6.43878505 19.6152336,6.4264486 19.6093458,6.41495327 C19.5650467,6.32495327 19.5193458,6.24028037 19.4733645,6.15897196 C19.4643925,6.14299065 19.4551402,6.12728972 19.4461682,6.11186916 C19.4001869,6.03280374 19.3530841,5.9582243 19.3051402,5.88841121 C19.2970093,5.87663551 19.2888785,5.86542056 19.2804673,5.85392523 C19.23,5.78242991 19.1784112,5.71457944 19.1257009,5.65373832 C15.5649533,1.54598131 0,0.262149533 0,0.262149533 C0,0.262149533 4.71700935,6.63140187 12.5747664,13.5883178 C20.4302804,20.5441121 21.7239252,19.8681308 21.7239252,19.8681308 C21.7239252,19.8681308 21.7236449,19.8650467 21.7233645,19.8594393 C21.7233645,19.857757 21.7233645,19.8566355 21.7233645,19.8543925" id="Fill-13" fill="#2A8CF8"></path>
                    </g>
                </g>
            </g>
        </g>
    </g>
</svg>